<svg width="50" height="50" viewBox="0 0 50 50" fill="none" xmlns="http://www.w3.org/2000/svg">
<path d="M8.3335 22.75C8.3335 20.8644 8.3335 19.9216 8.91928 19.3358C9.50507 18.75 10.4479 18.75 12.3335 18.75H37.6668C39.5524 18.75 40.4953 18.75 41.081 19.3358C41.6668 19.9216 41.6668 20.8644 41.6668 22.75V37.75C41.6668 40.5784 41.6668 41.9926 40.7882 42.8713C39.9095 43.75 38.4953 43.75 35.6668 43.75H14.3335C11.5051 43.75 10.0909 43.75 9.21218 42.8713C8.3335 41.9926 8.3335 40.5784 8.3335 37.75V22.75Z" stroke="#CCD2E3" stroke-width="2"/>
<path d="M33.3337 16.6667V14.5833C33.3337 11.4679 33.3337 9.91025 32.6638 8.75C32.2249 7.9899 31.5938 7.35871 30.8337 6.91987C29.6734 6.25 28.1157 6.25 25.0003 6.25C21.8849 6.25 20.3272 6.25 19.167 6.91987C18.4069 7.35871 17.7757 7.9899 17.3369 8.75C16.667 9.91025 16.667 11.4679 16.667 14.5833V16.6667" stroke="#CCD2E3" stroke-width="2" stroke-linecap="round"/>
<ellipse cx="25.0002" cy="31.25" rx="4.16667" ry="4.16667" fill="#CCD2E3"/>
</svg>
