<svg width="36" height="36" viewBox="0 0 36 36" fill="none" xmlns="http://www.w3.org/2000/svg">
<path d="M15.7827 6.38699C15.0702 6.29422 14.299 6.30265 13.5959 6.40281C12.0481 6.62331 11.0552 7.96515 10.9667 9.45718C10.8718 11.0558 10.7758 13.6283 10.7733 17.5124L8.76766 19.3877C7.68422 20.4007 7.09296 21.8739 7.33234 23.3669C7.82696 26.4518 8.68295 28.6952 9.47139 30.2259C10.4659 32.1567 12.4091 33.2456 14.5065 33.5158C17.3865 33.8868 20.3023 33.8967 23.1849 33.5708C25.6227 33.2952 27.6419 31.6271 28.4029 29.2991C29.2028 26.8521 29.6259 24.7138 29.8489 23.0798C30.0452 21.6401 29.6569 20.4689 28.8973 19.5262C28.148 18.5961 27.0515 17.9051 25.8498 17.3742C23.8652 16.4975 21.4923 16.0178 19.7007 15.6556C19.4415 15.6032 19.1943 15.5532 18.9624 15.5049C18.9363 13.9712 18.7282 11.4096 18.5614 9.55719C18.4234 8.02504 17.4 6.59757 15.7827 6.38699Z" fill="white"/>
<path fill-rule="evenodd" clip-rule="evenodd" d="M14.8607 3.7151C11.1674 3.7151 8.17335 6.70915 8.17335 10.4025C8.17335 11.2233 7.50803 11.8886 6.68726 11.8886C5.86652 11.8886 5.20117 11.2233 5.20117 10.4025C5.20117 5.06766 9.52591 0.74292 14.8607 0.74292C20.1956 0.74292 24.5203 5.06766 24.5203 10.4025C24.5203 11.2233 23.855 11.8886 23.0342 11.8886C22.2135 11.8886 21.5481 11.2233 21.5481 10.4025C21.5481 6.70915 18.5541 3.7151 14.8607 3.7151Z" fill="white"/>
</svg>
