<svg width="24" height="24" viewBox="0 0 24 24" fill="none" xmlns="http://www.w3.org/2000/svg">
<path d="M12.0001 7.49805C14.4811 7.49806 16.836 7.90926 18.9532 8.64746L18.2657 18.2832C18.1161 20.3764 16.374 21.998 14.2755 21.998H9.72469C7.62618 21.998 5.88404 20.3763 5.73445 18.2832L5.04597 8.64746C7.1633 7.90915 9.51881 7.49805 12.0001 7.49805ZM10.0001 10.248C9.58586 10.248 9.25008 10.5838 9.25008 10.998V16.998C9.25008 17.4123 9.58586 17.748 10.0001 17.748C10.4142 17.748 10.7501 17.4122 10.7501 16.998V10.998C10.7501 10.5839 10.4142 10.2481 10.0001 10.248ZM14.0001 10.248C13.5859 10.248 13.2501 10.5838 13.2501 10.998V16.998C13.2501 17.4123 13.5859 17.748 14.0001 17.748C14.4142 17.748 14.7501 17.4122 14.7501 16.998V10.998C14.7501 10.5839 14.4142 10.2481 14.0001 10.248ZM12.0001 2C13.5188 2.00007 14.7501 3.23126 14.7501 4.75V4.91602C17.1349 5.20627 19.3628 5.8684 21.3282 6.82617C21.7005 7.00759 21.8552 7.45582 21.6739 7.82812C21.4924 8.20048 21.0433 8.35528 20.671 8.17383C18.1795 6.95976 15.2041 6.25002 12.0001 6.25C8.79582 6.25 5.81984 6.9596 3.3282 8.17383C2.95586 8.35522 2.50671 8.20045 2.32527 7.82812C2.14429 7.45603 2.29914 7.00769 2.67097 6.82617C4.63646 5.86835 6.8651 5.20626 9.25008 4.91602V4.75C9.25008 3.23122 10.4813 2 12.0001 2Z" fill="#D42D2D"/>
</svg>
